<?xml version="1.0" encoding="UTF-8"?>
<svg version="1.1" xmlns="http://www.w3.org/2000/svg" width="875" height="769">
<path d="M0 0 C288.75 0 577.5 0 875 0 C875 253.77 875 507.54 875 769 C586.25 769 297.5 769 0 769 C0 515.23 0 261.46 0 0 Z " fill="#FDFDFD" transform="translate(0,0)"/>
<path d="M0 0 C3.66792961 3.22379617 6.57775237 7.02477577 8.5625 11.5 C8.5625 12.49 8.5625 13.48 8.5625 14.5 C9.5215625 13.51 9.5215625 13.51 10.5 12.5 C24.62324953 -1.50322191 24.62324953 -1.50322191 35.875 -1.9375 C44.13689184 -1.70984741 50.53052987 0.22867056 56.5625 6 C61.81941823 11.56020197 62.68795034 17.14972095 62.51171875 24.65234375 C62.43119218 26.58102115 62.34377066 28.50942113 62.25 30.4375 C62.21455078 31.40107422 62.17910156 32.36464844 62.14257812 33.35742188 C61.66697661 43.74257128 61.66697661 43.74257128 59.5625 48.5 C57.28920915 50.47276418 55.35059983 51.9129271 52.8125 53.4375 C52.1414624 53.8607959 51.4704248 54.2840918 50.77905273 54.72021484 C48.72129379 56.0057405 46.64626046 57.25715176 44.5625 58.5 C43.96260254 58.86270996 43.36270508 59.22541992 42.74462891 59.59912109 C38.74157463 62.0068455 34.67508403 64.28621902 30.5625 66.5 C29.65709473 66.99064941 29.65709473 66.99064941 28.73339844 67.49121094 C17.41695891 73.56099143 5.65448725 78.21184076 -6.4375 82.5 C-7.1490625 82.75410645 -7.860625 83.00821289 -8.59375 83.27001953 C-27.62888807 89.95741301 -47.27772214 92.67091578 -67.375 92.75 C-69.33469727 92.7809375 -69.33469727 92.7809375 -71.33398438 92.8125 C-80.08107653 92.84771728 -88.76900186 92.64630407 -95.9375 87.0625 C-98.73226252 84.19786842 -100.26492403 82.21990964 -100.66796875 78.203125 C-100.65378906 77.39359375 -100.63960938 76.5840625 -100.625 75.75 C-100.61855469 74.95078125 -100.61210937 74.1515625 -100.60546875 73.328125 C-100.38928288 69.68815828 -99.91816759 66.11462028 -99.4375 62.5 C-100.44949463 62.63631836 -100.44949463 62.63631836 -101.48193359 62.77539062 C-104.59126621 63.19032295 -107.70183115 63.59521191 -110.8125 64 C-111.87339844 64.14308594 -112.93429687 64.28617187 -114.02734375 64.43359375 C-120.54071727 65.27274003 -126.8711881 65.6985891 -133.4375 65.5 C-134.125 63.1875 -134.125 63.1875 -134.4375 60.5 C-133.38110352 58.88916016 -133.38110352 58.88916016 -131.4375 57.5 C-128.37475586 56.89990234 -128.37475586 56.89990234 -124.65234375 56.5859375 C-123.99545059 56.52596588 -123.33855743 56.46599426 -122.66175842 56.40420532 C-120.56706158 56.21510647 -118.47138432 56.04426879 -116.375 55.875 C-114.27547676 55.69533596 -112.17636706 55.51187808 -110.07752991 55.32437134 C-108.17593456 55.15605756 -106.27340254 54.99842877 -104.37084961 54.84130859 C-101.50754741 54.67704181 -101.50754741 54.67704181 -99.4375 53.5 C-99.03020772 51.17843403 -98.69311323 48.8431213 -98.4375 46.5 C-99.52289063 46.644375 -100.60828125 46.78875 -101.7265625 46.9375 C-103.1718491 47.12519956 -104.61716307 47.31268838 -106.0625 47.5 C-106.77535156 47.59539062 -107.48820312 47.69078125 -108.22265625 47.7890625 C-112.30833592 48.3138287 -116.31268878 48.79728369 -120.4375 48.5 C-121.0975 47.84 -121.7575 47.18 -122.4375 46.5 C-122.1075 44.52 -121.7775 42.54 -121.4375 40.5 C-113.5175 39.51 -105.5975 38.52 -97.4375 37.5 C-97.4375 34.86 -97.4375 32.22 -97.4375 29.5 C-98.94147339 29.72719727 -98.94147339 29.72719727 -100.47583008 29.95898438 C-104.24499426 30.52617498 -108.01567352 31.08269559 -111.78686523 31.63623047 C-113.40968394 31.87589742 -115.03209511 32.11834282 -116.65405273 32.36376953 C-135.81368552 35.25868784 -135.81368552 35.25868784 -143.4375 34.5 C-144.4375 33.5 -144.4375 33.5 -144.5 30.9375 C-144.479375 30.133125 -144.45875 29.32875 -144.4375 28.5 C-134.77649096 24.84448307 -124.25630639 24.01932191 -114.0625 22.875 C-112.91394531 22.7409375 -111.76539063 22.606875 -110.58203125 22.46875 C-105.8390912 21.92764625 -101.21668568 21.41814594 -96.4375 21.5 C-96.52 20.46875 -96.6025 19.4375 -96.6875 18.375 C-96.35427212 13.20996781 -94.46289152 10.39620937 -90.72265625 6.89453125 C-87.67778364 5.03637822 -85.17067585 4.81991321 -81.625 4.4375 C-80.92689209 4.35935059 -80.22878418 4.28120117 -79.50952148 4.20068359 C-72.73552794 3.46768505 -65.94080567 2.9433296 -59.14990234 2.39477539 C-53.09731467 1.88360033 -47.0732123 1.23774609 -41.046875 0.484375 C-40.32076523 0.39384857 -39.59465546 0.30332214 -38.84654236 0.21005249 C-35.24899253 -0.24116082 -31.6532235 -0.70346004 -28.05883789 -1.17919922 C-6.05469091 -4.03326603 -6.05469091 -4.03326603 0 0 Z " fill="#3D3C3B" transform="translate(433.4375,401.5)"/>
<path d="M0 0 C3.10077879 -0.12174382 5.42954238 -0.01046482 8.27178955 1.28555298 C10.42634478 3.9403844 10.18885916 5.63529283 10.02911377 9.02359009 C9.98166016 10.22499634 9.93420654 11.42640259 9.88531494 12.66421509 C9.77473755 14.60747681 9.77473755 14.60747681 9.66192627 16.58999634 C9.59733274 17.93108499 9.53395244 19.27223259 9.47174072 20.61343384 C9.30362482 24.09839946 9.10669837 27.58119633 8.90405273 31.06430054 C8.78914033 33.11302276 8.68711798 35.16193456 8.59014893 37.21157837 C8.40645028 41.02674904 8.19579427 44.83934391 7.97442627 48.65249634 C7.91690186 49.81966187 7.85937744 50.98682739 7.80010986 52.18936157 C7.08783377 62.88534792 7.08783377 62.88534792 2.78692627 67.15249634 C-3.22908609 70.79689365 -10.04222888 72.31729623 -16.83807373 73.83999634 C-18.19158936 74.15807251 -18.19158936 74.15807251 -19.57244873 74.48257446 C-27.17859932 76.23997223 -34.51639222 77.30821049 -42.34197998 77.32046509 C-43.09470688 77.32379349 -43.84743378 77.32712189 -44.62297058 77.33055115 C-46.20369867 77.3355826 -47.78443725 77.33796065 -49.36517334 77.33779907 C-51.77233363 77.33999338 -54.17904067 77.35821029 -56.58612061 77.37710571 C-58.12973885 77.38003896 -59.67335924 77.38202422 -61.21697998 77.38296509 C-61.92963516 77.3901506 -62.64229034 77.39733612 -63.37654114 77.40473938 C-68.4838475 77.38155247 -72.83088336 76.84003799 -77.06756592 73.83877563 C-78.63627808 71.52950563 -78.57044967 69.95111872 -78.54119873 67.17202759 C-78.53684814 66.18114136 -78.53249756 65.19025513 -78.52801514 64.16934204 C-78.50658447 63.11190796 -78.48515381 62.05447388 -78.46307373 60.96499634 C-78.4506665 59.87726929 -78.43825928 58.78954224 -78.42547607 57.66885376 C-78.31108516 49.8654288 -78.04913472 42.09138046 -77.3883667 34.31314087 C-77.18121278 31.75978125 -77.01377719 29.20456533 -76.84197998 26.64859009 C-76.69636904 24.73310901 -76.54924505 22.81774232 -76.40057373 20.90249634 C-76.34272705 19.9960437 -76.28488037 19.08959106 -76.22528076 18.15567017 C-75.91763789 14.53350077 -75.59268279 11.82782295 -73.79901123 8.63687134 C-69.63576838 6.24709448 -65.37806817 6.0796354 -60.65057373 5.65249634 C-59.00339355 5.48366943 -59.00339355 5.48366943 -57.32293701 5.31143188 C-54.06308568 4.98343369 -50.80226885 4.67411519 -47.54003906 4.3711853 C-44.05564585 4.04372089 -40.5728191 3.70051938 -37.08973694 3.35943604 C-32.2565096 2.8876881 -27.42238932 2.42544124 -22.58807373 1.96499634 C-21.63947479 1.87427856 -20.69087585 1.78356079 -19.71353149 1.69009399 C-16.97157735 1.42972054 -14.22916099 1.17495721 -11.48651123 0.92202759 C-10.6696434 0.84406448 -9.85277557 0.76610138 -9.01115417 0.68577576 C-6.00975988 0.41344498 -3.00641644 0.20716323 0 0 Z " fill="#EA7D2D" transform="translate(420.21307373046875,407.8475036621094)"/>
<path d="M0 0 C2.15209241 3.22813861 2.41710852 4.8094432 2.8515625 8.59375 C2.98046875 9.7075 3.109375 10.82125 3.2421875 11.96875 C3.36851562 13.1340625 3.49484375 14.299375 3.625 15.5 C3.82609375 17.2015625 3.82609375 17.2015625 4.03125 18.9375 C4.8238406 25.9899388 5.17755418 32.90500687 5 40 C2.55859375 37.90039062 2.55859375 37.90039062 0.1171875 35.80078125 C-2.5719088 33.51356096 -5.28547193 31.25698014 -8 29 C-8.56847656 29.90621094 -9.13695312 30.81242187 -9.72265625 31.74609375 C-16.04840275 41.75818556 -22.80987117 50.84550739 -30.8203125 59.59765625 C-32.72321347 61.69493958 -34.5526306 63.83321151 -36.375 66 C-50.51760547 82.0580825 -68.96610822 94.58985247 -87.66308594 104.72802734 C-89.97961882 105.98890661 -92.2750063 107.28299607 -94.5703125 108.58203125 C-123.73055521 124.81176795 -157.91786186 135.16704943 -191.375 135.1875 C-192.42171875 135.19974609 -193.4684375 135.21199219 -194.546875 135.22460938 C-209.69178381 135.2526555 -224.7679251 132.91694654 -236 122 C-240.370914 117.44483202 -241.3619873 113.33434139 -241.625 107.0625 C-241.32269543 98.99528674 -238.75452598 93.66358386 -233.1875 87.9375 C-232.1046875 86.9784375 -232.1046875 86.9784375 -231 86 C-231.15984375 86.53882813 -231.3196875 87.07765625 -231.484375 87.6328125 C-232.74860029 93.43675588 -232.68357004 99.69295113 -231 105.375 C-224.93635752 113.33353076 -216.56350572 116.32493438 -207 118 C-190.8664523 118.92167761 -174.82044356 118.31140858 -159 115 C-158.21318848 114.83902832 -157.42637695 114.67805664 -156.61572266 114.51220703 C-117.91246456 106.3447447 -78.83974379 88.17521385 -49 62 C-48.14019531 61.24976563 -47.28039062 60.49953125 -46.39453125 59.7265625 C-43.89975495 57.51485461 -41.44424506 55.26730476 -39 53 C-38.35804688 52.42378906 -37.71609375 51.84757812 -37.0546875 51.25390625 C-28.95995732 43.65027895 -22.14997159 34.22495739 -16 25 C-21.94 24.34 -27.88 23.68 -34 23 C-34 22.34 -34 21.68 -34 21 C-31.52786158 19.40901983 -29.05874922 17.94012362 -26.5 16.5 C-24.94683016 15.60735658 -23.39477487 14.71277151 -21.84375 13.81640625 C-21.04453125 13.35508301 -20.2453125 12.89375977 -19.421875 12.41845703 C-15.57005509 10.16250202 -11.78178122 7.80847924 -8 5.4375 C-7.31228516 5.00824219 -6.62457031 4.57898438 -5.91601562 4.13671875 C-2.7930728 2.28501608 -2.7930728 2.28501608 0 0 Z " fill="#6BB84A" transform="translate(556,385)"/>
<path d="M0 0 C40.42045383 -1.47380929 40.42045383 -1.47380929 56.96240234 12.07678223 C65.72105714 20.26172601 73.49501848 29.69110988 73.96240234 42.07678223 C68.68240234 42.07678223 63.40240234 42.07678223 57.96240234 42.07678223 C57.26115234 40.57115723 56.55990234 39.06553223 55.83740234 37.51428223 C50.71474693 27.35506645 43.95956845 21.67638987 33.27932739 17.73120117 C29.19892965 16.57868673 25.1688702 16.65030649 20.95458984 16.67834473 C20.00377029 16.67420563 19.05295074 16.67006653 18.07331848 16.665802 C14.9943491 16.65963746 11.91628107 16.6785087 8.83740234 16.70178223 C7.78428864 16.70577026 6.73117493 16.7097583 5.64614868 16.71386719 C-11.75909674 16.79126426 -28.78384379 17.67172906 -46.03759766 20.07678223 C-47.11557617 20.22131836 -48.19355469 20.36585449 -49.30419922 20.51477051 C-78.78547765 24.52525475 -108.10126791 30.4653434 -136.72509766 38.57678223 C-137.70534912 38.84933838 -138.68560059 39.12189453 -139.69555664 39.40270996 C-150.73973236 42.61465181 -150.73973236 42.61465181 -160.03759766 49.07678223 C-162.00878906 49.30383301 -162.00878906 49.30383301 -164.38916016 49.27209473 C-165.23994141 49.26564941 -166.09072266 49.2592041 -166.96728516 49.25256348 C-167.85673828 49.23580566 -168.74619141 49.21904785 -169.66259766 49.20178223 C-171.00837891 49.18824707 -171.00837891 49.18824707 -172.38134766 49.17443848 C-174.60036351 49.15083192 -176.81884843 49.11790532 -179.03759766 49.07678223 C-175.91437903 40.230227 -168.70503312 33.74593922 -160.41259766 29.70178223 C-112.02536953 8.68057584 -52.30660493 1.97105527 0 0 Z " fill="#3F3F3F" transform="translate(488.03759765625,263.9232177734375)"/>
<path d="M0 0 C1 2 1 2 0.44604492 3.7331543 C-0.62748737 6.05800995 -1.70384239 8.37910209 -2.8125 10.6875 C-3.22193848 11.54239014 -3.63137695 12.39728027 -4.05322266 13.27807617 C-8.02642416 21.36998732 -12.69016876 28.73092621 -18 36 C-18.40379883 36.56460938 -18.80759766 37.12921875 -19.22363281 37.7109375 C-37.98885059 63.7512397 -66.1896698 87.5788589 -97 98 C-111.36476903 99.98062853 -122.48033071 92.48778504 -134 85 C-131.26725381 82.26725381 -128.11377047 81.63621907 -124.5 80.5625 C-123.77385498 80.34005615 -123.04770996 80.1176123 -122.29956055 79.88842773 C-119.26708917 78.96286092 -116.23168433 78.06408972 -113.17578125 77.21875 C-106.82761722 75.45595404 -101.05307665 72.87378933 -95.125 70.01318359 C-92.65615767 68.83605863 -90.17228148 67.69386822 -87.6875 66.55078125 C-53.7463579 50.81141411 -23.74054923 29.10131841 0 0 Z " fill="#3C3D3E" transform="translate(540,439)"/>
<path d="M0 0 C6.249375 -0.0928125 6.249375 -0.0928125 12.625 -0.1875 C13.92775879 -0.21481201 15.23051758 -0.24212402 16.57275391 -0.27026367 C23.57898321 -0.32070332 28.15983672 0.06721707 33.8515625 4.4140625 C36.10657346 7.52812526 35.49981627 11.3410886 35 15 C33.5 18.0625 33.5 18.0625 32 20 C32.804375 20.61875 33.60875 21.2375 34.4375 21.875 C37 24 37 24 38 26 C38.37593152 30.98109259 38.1765161 34.05673864 35 38 C30.93142866 41.03805558 27.97170331 41.35708557 22.94921875 41.29296875 C21.74354248 41.28547607 20.53786621 41.2779834 19.2956543 41.27026367 C17.77496338 41.24295166 16.25427246 41.21563965 14.6875 41.1875 C9.840625 41.125625 4.99375 41.06375 0 41 C0 27.47 0 13.94 0 0 Z " fill="#87C44E" transform="translate(469,324)"/>
<path d="M0 0 C2.97 0 5.94 0 9 0 C9 5.94 9 11.88 9 18 C13.09551474 13.90801447 13.09551474 13.90801447 16.98046875 9.66796875 C25.36810275 0.44846031 25.36810275 0.44846031 30.0703125 -0.84375 C32.51702493 -0.81586724 34.63837041 -0.6237261 37 0 C36.154375 0.99 35.30875 1.98 34.4375 3 C33.62345703 3.95326172 33.62345703 3.95326172 32.79296875 4.92578125 C31.5790886 6.33007397 30.35204669 7.72307833 29.11328125 9.10546875 C28.49839844 9.79253906 27.88351562 10.47960937 27.25 11.1875 C26.67765625 11.82042969 26.1053125 12.45335937 25.515625 13.10546875 C24.00497263 14.99378421 23.04427537 16.82949562 22 19 C22.37809814 19.48879639 22.75619629 19.97759277 23.14575195 20.48120117 C24.87077774 22.7145053 26.5916661 24.95096455 28.3125 27.1875 C28.90740234 27.95642578 29.50230469 28.72535156 30.11523438 29.51757812 C32.97198624 33.2361434 35.71807714 36.88924366 38 41 C34.00257564 42.06230765 30.97768906 42.2205905 27 41 C22.15821471 36.80397164 18.5867034 31.25799452 15 26 C11.07166959 28.59542018 11.07166959 28.59542018 9.29296875 32.796875 C9.25816406 33.77140625 9.22335937 34.7459375 9.1875 35.75 C9.13980469 36.73484375 9.09210938 37.7196875 9.04296875 38.734375 C9.02169922 39.85585938 9.02169922 39.85585938 9 41 C6.03 41 3.06 41 0 41 C0 27.47 0 13.94 0 0 Z " fill="#F37D34" transform="translate(257,324)"/>
<path d="M0 0 C2.97 0 5.94 0 9 0 C9.33 4.62 9.66 9.24 10 14 C10.99 13.34 11.98 12.68 13 12 C17.85323218 11.42151877 22.4634095 11.35975396 27 13.25 C29.98904236 15.86541206 31.83905637 17.7009138 32.34057617 21.74902344 C32.3170105 23.28864746 32.3170105 23.28864746 32.29296875 24.859375 C32.2784668 26.53193359 32.2784668 26.53193359 32.26367188 28.23828125 C32.23853516 29.39714844 32.21339844 30.55601562 32.1875 31.75 C32.16719727 33.51150391 32.16719727 33.51150391 32.14648438 35.30859375 C32.1111478 38.20619298 32.06180979 41.10286427 32 44 C29.03 44 26.06 44 23 44 C22.505 32.615 22.505 32.615 22 21 C19.03 21 16.06 21 13 21 C9.78092238 24.21907762 9.62201472 24.46873783 9.48828125 28.66796875 C9.45283203 29.56064453 9.41738281 30.45332031 9.38085938 31.37304688 C9.34702148 32.76620117 9.34702148 32.76620117 9.3125 34.1875 C9.27833984 35.12787109 9.24417969 36.06824219 9.20898438 37.03710938 C9.12652849 39.3576536 9.06158697 41.67880817 9 44 C6.03 44 3.06 44 0 44 C0 29.48 0 14.96 0 0 Z " fill="#F17F35" transform="translate(299,321)"/>
<path d="M0 0 C2.64 0 5.28 0 8 0 C8 4.95 8 9.9 8 15 C9.32 14.01 10.64 13.02 12 12 C16.64432556 11.2237896 21.69948931 10.93316012 26.046875 12.94921875 C29.2839113 15.4891705 30.75509224 18.17273553 32 22 C32.22705078 24.5871582 32.22705078 24.5871582 32.1953125 27.30078125 C32.18886719 28.27724609 32.18242187 29.25371094 32.17578125 30.25976562 C32.15902344 31.26716797 32.14226562 32.27457031 32.125 33.3125 C32.11597656 34.33923828 32.10695313 35.36597656 32.09765625 36.42382812 C32.07416201 38.94945899 32.04131131 41.4746081 32 44 C29.03 44 26.06 44 23 44 C22.98018066 43.37432129 22.96036133 42.74864258 22.93994141 42.10400391 C22.84485774 39.27723481 22.73511254 36.45122185 22.625 33.625 C22.57859375 32.14773438 22.57859375 32.14773438 22.53125 30.640625 C22.49257813 29.69960938 22.45390625 28.75859375 22.4140625 27.7890625 C22.36693115 26.48509521 22.36693115 26.48509521 22.31884766 25.15478516 C22.18770567 22.79038206 22.18770567 22.79038206 20 21 C18.08993694 20.6823754 18.08993694 20.6823754 16 20.75 C15.29875 20.74484375 14.5975 20.7396875 13.875 20.734375 C11.7564331 20.84294485 11.7564331 20.84294485 10 23 C9.62995706 25.22658154 9.62995706 25.22658154 9.5859375 27.7890625 C9.52792969 29.20058594 9.52792969 29.20058594 9.46875 30.640625 C9.42234375 32.11789062 9.42234375 32.11789062 9.375 33.625 C9.31699219 35.11386719 9.31699219 35.11386719 9.2578125 36.6328125 C9.1633686 39.08835385 9.07780125 41.5438841 9 44 C6.03 44 3.06 44 0 44 C0 29.48 0 14.96 0 0 Z " fill="#F08035" transform="translate(411,321)"/>
<path d="M0 0 C2.97 0 5.94 0 9 0 C9.03738281 1.48113281 9.07476562 2.96226562 9.11328125 4.48828125 C9.17893354 6.42971314 9.24538113 8.37111826 9.3125 10.3125 C9.33505859 11.28896484 9.35761719 12.26542969 9.38085938 13.27148438 C9.41630859 14.20927734 9.45175781 15.14707031 9.48828125 16.11328125 C9.51446533 16.97735596 9.54064941 17.84143066 9.56762695 18.73168945 C10.08801445 21.46174041 10.73602448 22.41080361 13 24 C16.57756686 24.00082535 16.57756686 24.00082535 20 23 C22.08745045 19.86882433 22.27653996 18.93053776 22.4140625 15.33203125 C22.45273437 14.43935547 22.49140625 13.54667969 22.53125 12.62695312 C22.57765625 11.23379883 22.57765625 11.23379883 22.625 9.8125 C22.66367187 8.87212891 22.70234375 7.93175781 22.7421875 6.96289062 C22.83642674 4.64224934 22.91930123 2.32115159 23 0 C25.97 0 28.94 0 32 0 C32 10.56 32 21.12 32 32 C29.36 32 26.72 32 24 32 C23.67 31.01 23.34 30.02 23 29 C22.401875 29.474375 21.80375 29.94875 21.1875 30.4375 C17.21798098 33.27287073 13.76909777 33.40416083 9 33 C4.54404286 30.68632995 2.21621035 28.46738177 0 24 C-0.34057617 21.22924805 -0.34057617 21.22924805 -0.29296875 18.26171875 C-0.28330078 17.19501953 -0.27363281 16.12832031 -0.26367188 15.02929688 C-0.23853516 13.92650391 -0.21339844 12.82371094 -0.1875 11.6875 C-0.17396484 10.56537109 -0.16042969 9.44324219 -0.14648438 8.28710938 C-0.1112138 5.52424771 -0.06192235 2.76237171 0 0 Z " fill="#F18138" transform="translate(339,333)"/>
<path d="M0 0 C1.12148438 -0.01675781 2.24296875 -0.03351563 3.3984375 -0.05078125 C8.1660942 0.48601303 11.35714882 2.56930973 14.4375 6.1875 C16.668976 9.37532286 17.17850702 10.54865223 16.625 14.3125 C14.87872522 11.69308783 14.23777612 10.27425123 13.625 7.3125 C13.356875 7.951875 13.08875 8.59125 12.8125 9.25 C11.625 11.3125 11.625 11.3125 8.625 12.3125 C8.295 11.3225 7.965 10.3325 7.625 9.3125 C4.03235548 8.11495183 1.39782526 7.98155042 -2.375 8.3125 C-4.73997439 10.17958505 -6.03530715 11.63311431 -7.375 14.3125 C-2.095 14.3125 3.185 14.3125 8.625 14.3125 C8.625 15.3025 8.625 16.2925 8.625 17.3125 C11.265 17.3125 13.905 17.3125 16.625 17.3125 C16.625 17.6425 16.625 17.9725 16.625 18.3125 C9.035 18.3125 1.445 18.3125 -6.375 18.3125 C-5.03936384 23.25713635 -5.03936384 23.25713635 -2.375 24.3125 C1.66350751 24.58226278 5.55837399 24.56756274 9.5 23.625 C11.625 23.3125 11.625 23.3125 13.5 24.5 C14.625 26.3125 14.625 26.3125 14.75 28.3125 C13.29214485 30.90424248 11.52787585 31.7525253 8.78125 32.765625 C2.85974574 34.26745579 -2.41039597 34.27705676 -7.75 31.125 C-10.95494459 28.97700522 -13.25119445 26.53940283 -15.375 23.3125 C-16.3624269 17.88806389 -16.72435106 11.90968355 -14.12890625 6.9140625 C-9.99031145 2.02205768 -6.48939234 0.0222748 0 0 Z " fill="#86C34D" transform="translate(569.375,332.6875)"/>
<path d="M0 0 C4.62 0 9.24 0 14 0 C14.37511719 1.71445312 14.75023437 3.42890625 15.13671875 5.1953125 C18.77956693 21.673237 18.77956693 21.673237 24.1171875 37.65625 C25 40 25 40 25 42 C21.85069107 43.04976964 19.61185544 43.10131595 16.3125 43.0625 C15.31863281 43.05347656 14.32476562 43.04445313 13.30078125 43.03515625 C12.16189453 43.01775391 12.16189453 43.01775391 11 43 C4.91065493 29.49979242 1.87672146 14.64658705 0 0 Z " fill="#424242" transform="translate(302,374)"/>
<path d="M0 0 C0.763125 0.495 1.52625 0.99 2.3125 1.5 C1.6525 3.48 0.9925 5.46 0.3125 7.5 C-4.3075 7.5 -8.9275 7.5 -13.6875 7.5 C-14.0175 8.82 -14.3475 10.14 -14.6875 11.5 C-13.11548828 11.77263672 -13.11548828 11.77263672 -11.51171875 12.05078125 C-10.13269905 12.30407058 -8.75379881 12.55801096 -7.375 12.8125 C-6.68470703 12.93044922 -5.99441406 13.04839844 -5.28320312 13.16992188 C-2.44993169 13.70372664 -0.11920045 14.19867309 2.265625 15.86328125 C4.17184405 18.84352671 3.90197809 22.14652463 3.3125 25.5 C1.5700181 28.46867287 0.09973348 30.01376756 -2.8125 31.8125 C-10.59849332 33.67436797 -17.36509905 32.47140908 -24.6875 29.5 C-23.6975 26.035 -23.6975 26.035 -22.6875 22.5 C-21.511875 22.83 -20.33625 23.16 -19.125 23.5 C-14.68816807 24.61117816 -9.92574034 25.61912017 -5.6875 23.5 C-5.6875 22.84 -5.6875 22.18 -5.6875 21.5 C-6.56792969 21.34144531 -7.44835937 21.18289063 -8.35546875 21.01953125 C-17.72131643 19.13804576 -17.72131643 19.13804576 -22 16.3125 C-23.91825586 13.11540689 -24.4160235 11.11374864 -24.1796875 7.4296875 C-23.16931098 3.46837004 -20.20070567 1.41758216 -16.8515625 -0.61328125 C-11.47186171 -2.81759908 -5.25231344 -2.13653428 0 0 Z " fill="#89C450" transform="translate(614.6875,333.5)"/>
<path d="M0 0 C-0.75 2.4375 -0.75 2.4375 -2 5 C-5.19894197 6.22141421 -8.36036454 6.1028528 -11.75 6.0625 C-12.73484375 6.05347656 -13.7196875 6.04445313 -14.734375 6.03515625 C-15.48203125 6.02355469 -16.2296875 6.01195312 -17 6 C-17 6.99 -17 7.98 -17 9 C-16.03578125 9.24234375 -15.0715625 9.4846875 -14.078125 9.734375 C-12.81484375 10.06953125 -11.5515625 10.4046875 -10.25 10.75 C-8.99703125 11.07484375 -7.7440625 11.3996875 -6.453125 11.734375 C-2.92668033 13.02687282 -1.2803588 14.06087089 1 17 C1.5625 19.875 1.5625 19.875 1 23 C-1.77719848 27.12612346 -4.08378721 29.88267891 -9 31 C-15.56653006 31.70538897 -20.91005623 30.41870107 -27 28 C-26.125 23.25 -26.125 23.25 -25 21 C-24.236875 21.33 -23.47375 21.66 -22.6875 22 C-17.74825349 23.33945668 -13.08536891 23.16287658 -8 23 C-8 21.68 -8 20.36 -8 19 C-8.86882812 18.91363281 -9.73765625 18.82726562 -10.6328125 18.73828125 C-21.23531977 17.44558182 -21.23531977 17.44558182 -24.8125 14.8125 C-27 12 -27 12 -27.6875 8.5625 C-26.81499134 4.04131875 -25.34897355 2.13056223 -22 -1 C-14.58565202 -4.70717399 -7.12335303 -3.63745687 0 0 Z " fill="#F0863F" transform="translate(404,335)"/>
<path d="M0 0 C2.97 0 5.94 0 9 0 C9 2.64 9 5.28 9 8 C11.64 8 14.28 8 17 8 C17 10.31 17 12.62 17 15 C14.36 15 11.72 15 9 15 C9.33 20.28 9.66 25.56 10 31 C12.31 31.33 14.62 31.66 17 32 C17.66 33.98 18.32 35.96 19 38 C14.97387033 40.68408645 11.73183082 40.80610406 7 40 C3.42660117 38.07643127 1.30392487 35.9117746 0 32 C-0.07973476 30.66474283 -0.10771338 29.32587917 -0.09765625 27.98828125 C-0.09443359 27.23095703 -0.09121094 26.47363281 -0.08789062 25.69335938 C-0.07951172 24.90767578 -0.07113281 24.12199219 -0.0625 23.3125 C-0.05798828 22.51521484 -0.05347656 21.71792969 -0.04882812 20.89648438 C-0.0370585 18.93095743 -0.01912348 16.96546915 0 15 C-1.65 15 -3.3 15 -5 15 C-5 12.69 -5 10.38 -5 8 C-3.35 8 -1.7 8 0 8 C0 5.36 0 2.72 0 0 Z " fill="#85C34B" transform="translate(532,326)"/>
<path d="M0 0 C2.15209241 3.22813861 2.41710852 4.8094432 2.8515625 8.59375 C2.98046875 9.7075 3.109375 10.82125 3.2421875 11.96875 C3.43167969 13.71671875 3.43167969 13.71671875 3.625 15.5 C3.82609375 17.2015625 3.82609375 17.2015625 4.03125 18.9375 C4.8238406 25.9899388 5.17755418 32.90500687 5 40 C4.52393311 39.59048096 4.04786621 39.18096191 3.55737305 38.7590332 C-0.26678665 35.4709551 -4.11783247 32.21935844 -8 29 C-9.98 32.465 -9.98 32.465 -12 36 C-12.33 35.01 -12.66 34.02 -13 33 C-12.54625 32.278125 -12.0925 31.55625 -11.625 30.8125 C-9.90946431 27.84330361 -9.79795055 25.81034522 -9.515625 22.4609375 C-8.56540186 17.9257816 -6.31547569 13.89162363 -4.27734375 9.7578125 C-2.85990655 7.20407954 -2.85990655 7.20407954 -3 5 C-3.94875 5.70125 -4.8975 6.4025 -5.875 7.125 C-9.70710255 9.87003672 -13.70500771 12.27825764 -17.765625 14.66796875 C-19.54219264 15.72707638 -21.279063 16.85270867 -23 18 C-24.32567199 18.68177416 -25.65753688 19.35191436 -27 20 C-27 20.99 -27 21.98 -27 23 C-29.31 23 -31.62 23 -34 23 C-34 22.34 -34 21.68 -34 21 C-31.52786158 19.40901983 -29.05874922 17.94012362 -26.5 16.5 C-24.94683016 15.60735658 -23.39477487 14.71277151 -21.84375 13.81640625 C-21.04453125 13.35508301 -20.2453125 12.89375977 -19.421875 12.41845703 C-15.57005509 10.16250202 -11.78178122 7.80847924 -8 5.4375 C-6.96842773 4.79361328 -6.96842773 4.79361328 -5.91601562 4.13671875 C-2.7930728 2.28501608 -2.7930728 2.28501608 0 0 Z " fill="#87C64D" transform="translate(556,385)"/>
<path d="M0 0 C0.495 0.99 0.495 0.99 1 2 C-1.98224657 8.93777863 -6.3440251 14.3783666 -13 18 C-20.02396285 20.76352637 -27.66684595 21.61233639 -34.85546875 18.9375 C-40.67273367 15.69884116 -44.49342293 11.61622506 -48 6 C-47.67 5.34 -47.34 4.68 -47 4 C-46.27296875 4.50660156 -46.27296875 4.50660156 -45.53125 5.0234375 C-37.11281611 10.62493389 -29.01892911 12.0006263 -19 11 C-11.1067023 9.24476602 -5.61999752 5.73271953 0 0 Z " fill="#453D37" transform="translate(408,448)"/>
<path d="M0 0 C2.97 0 5.94 0 9 0 C9 10.56 9 21.12 9 32 C6.03 32 3.06 32 0 32 C0 21.44 0 10.88 0 0 Z " fill="#85C24D" transform="translate(513,333)"/>
<path d="M0 0 C2.97 0 5.94 0 9 0 C9 10.56 9 21.12 9 32 C6.03 32 3.06 32 0 32 C0 21.44 0 10.88 0 0 Z " fill="#F08037" transform="translate(451,333)"/>
<path d="M0 0 C2.62527189 -0.05382106 5.24944713 -0.09358313 7.875 -0.125 C8.62136719 -0.14175781 9.36773437 -0.15851563 10.13671875 -0.17578125 C12.09194461 -0.1933959 14.04742021 -0.10320189 16 0 C18 2 18 2 18.3125 5 C18.209375 5.99 18.10625 6.98 18 8 C14.31912647 10.45391569 11.55644412 10.22802759 7.3125 10.125 C6.2596582 10.11146484 6.2596582 10.11146484 5.18554688 10.09765625 C3.45688475 10.07413704 1.72839855 10.03826713 0 10 C0 6.7 0 3.4 0 0 Z " fill="#FBFCF7" transform="translate(479,348)"/>
<path d="M0 0 C2.9375 2 2.9375 2 5 4 C5.66 3.67 6.32 3.34 7 3 C7 2.01 7 1.02 7 0 C7.66 0 8.32 0 9 0 C10.0260734 1.31337396 11.02727325 2.64664105 12 4 C12.33 4 12.66 4 13 4 C13 6.64 13 9.28 13 12 C5.08 12 -2.84 12 -11 12 C-11 11.67 -11 11.34 -11 11 C-6.05 10.67 -1.1 10.34 4 10 C4 9.01 4 8.02 4 7 C-1.28 7 -6.56 7 -12 7 C-9.26996468 0.17491171 -7.09413829 -0.73387638 0 0 Z " fill="#9CCD6A" transform="translate(574,340)"/>
<path d="M0 0 C2.5625 0.25 2.5625 0.25 5.5625 2.25 C6.5525 1.59 7.5425 0.93 8.5625 0.25 C11.25 0.625 11.25 0.625 13.5625 1.25 C13.5625 1.58 13.5625 1.91 13.5625 2.25 C12.758125 2.37375 11.95375 2.4975 11.125 2.625 C9.8565625 2.934375 9.8565625 2.934375 8.5625 3.25 C8.2325 3.91 7.9025 4.57 7.5625 5.25 C10.5325 5.745 10.5325 5.745 13.5625 6.25 C14.1875 8.125 14.1875 8.125 14.5625 10.25 C12.5625 12.25 12.5625 12.25 9.5625 12.5 C6.5625 12.25 6.5625 12.25 4.5625 10.25 C3.9025 10.91 3.2425 11.57 2.5625 12.25 C-0.5625 12.375 -0.5625 12.375 -3.4375 12.25 C-3.7675 11.59 -4.0975 10.93 -4.4375 10.25 C-2.1275 10.25 0.1825 10.25 2.5625 10.25 C1.71683261 7.97826908 1.71683261 7.97826908 -0.9375 7.375 C-3.4375 6.25 -3.4375 6.25 -4.375 4.25 C-4.395625 3.59 -4.41625 2.93 -4.4375 2.25 C-2.4375 0.25 -2.4375 0.25 0 0 Z " fill="#C3C3C1" transform="translate(524.4375,375.75)"/>
<path d="M0 0 C1.91595968 -0.08133791 3.83291932 -0.13934367 5.75 -0.1875 C7.35101563 -0.23970703 7.35101563 -0.23970703 8.984375 -0.29296875 C12.30027855 0.02917214 13.59016673 0.77148914 16 3 C15.25 7.75 15.25 7.75 13 10 C9.9609375 10.1953125 9.9609375 10.1953125 6.375 10.125 C5.18648438 10.10695313 3.99796875 10.08890625 2.7734375 10.0703125 C1.85820312 10.04710937 0.94296875 10.02390625 0 10 C0 6.7 0 3.4 0 0 Z " fill="#F7FAF1" transform="translate(479,331)"/>
<path d="M0 0 C7.23897912 -0.48259861 7.23897912 -0.48259861 10.5625 1.625 C12 4 12 4 11.9375 7.125 C11 10 11 10 8 12 C5.95703125 12.1953125 5.95703125 12.1953125 3.8125 12.125 C1.9253125 12.063125 1.9253125 12.063125 0 12 C0 8.04 0 4.08 0 0 Z " fill="#979796" transform="translate(325,376)"/>
<path d="M0 0 C3.3 0 6.6 0 10 0 C9.48184469 4.39646928 7.97390131 6.6606285 5.125 10 C2.16881358 13.4867948 2.16881358 13.4867948 -0.30371094 17.31347656 C-3.38939487 22.20047512 -7.70786657 26.07972757 -11.77832031 30.14892578 C-13.37380429 31.74880099 -14.95259023 33.36401147 -16.53125 34.98046875 C-17.5484971 36.00358154 -18.56669478 37.02575027 -19.5859375 38.046875 C-20.5042334 38.97338867 -21.4225293 39.89990234 -22.36865234 40.85449219 C-25.06236957 43.05085394 -26.58530935 43.69918018 -30 44 C-26.85100748 40.74604106 -23.5695412 37.69954902 -20.1875 34.6875 C-18.4564885 33.12704404 -16.72723237 31.56463796 -15 30 C-14.02546875 29.12794922 -14.02546875 29.12794922 -13.03125 28.23828125 C-4.95474366 20.62377845 1.852826 11.220761 8 2 C5.36 1.67 2.72 1.34 0 1 C0 0.67 0 0.34 0 0 Z " fill="#8CCB47" transform="translate(532,408)"/>
<path d="M0 0 C2.875 1.1875 2.875 1.1875 5 3 C5.8125 5.6875 5.8125 5.6875 6 8 C5.360625 7.835 4.72125 7.67 4.0625 7.5 C-1.28180787 6.62745994 -6.11297728 6.07574397 -11.0625 8.5 C-11.701875 8.995 -12.34125 9.49 -13 10 C-12.74624791 6.27830274 -12.39626084 4.44287976 -9.875 1.625 C-6.24385096 -0.42738859 -4.1187411 -0.51484264 0 0 Z " fill="#443F3A" transform="translate(369,429)"/>
<path d="M0 0 C2.9375 2.375 2.9375 2.375 5 5 C5 5.99 5 6.98 5 8 C4.154375 7.67 3.30875 7.34 2.4375 7 C-2.75830938 5.48849182 -6.4370356 5.31797917 -11.4375 7.5 C-12.283125 7.995 -13.12875 8.49 -14 9 C-13.81375663 4.90264592 -13.43470443 3.40365412 -10.375 0.5625 C-6.21977955 -1.36121317 -4.35528757 -1.34617979 0 0 Z " fill="#463F39" transform="translate(408,427)"/>
<path d="M0 0 C1.9375 1.1875 1.9375 1.1875 3 3 C2.75546876 6.34192692 2.39456443 7.60543557 0 10 C-3.5 10.25 -3.5 10.25 -7 10 C-9 8 -9 8 -9.3125 5 C-9.209375 4.01 -9.10625 3.02 -9 2 C-5.53076119 -0.31282587 -4.07794425 -0.42478586 0 0 Z " fill="#90C854" transform="translate(521,318)"/>
<path d="M0 0 C2.67927341 4.01891012 2.15601248 6.24161923 2 11 C1.67 11 1.34 11 1 11 C0.505 8.525 0.505 8.525 0 6 C-0.66 6.33 -1.32 6.66 -2 7 C-2.33 6.34 -2.66 5.68 -3 5 C-3.94875 5.70125 -4.8975 6.4025 -5.875 7.125 C-9.70710255 9.87003672 -13.70500771 12.27825764 -17.765625 14.66796875 C-19.54219264 15.72707638 -21.279063 16.85270867 -23 18 C-24.32567199 18.68177416 -25.65753688 19.35191436 -27 20 C-27 20.99 -27 21.98 -27 23 C-29.31 23 -31.62 23 -34 23 C-34 22.34 -34 21.68 -34 21 C-31.52786158 19.40901983 -29.05874922 17.94012362 -26.5 16.5 C-24.94683016 15.60735658 -23.39477487 14.71277151 -21.84375 13.81640625 C-21.04453125 13.35508301 -20.2453125 12.89375977 -19.421875 12.41845703 C-15.57005509 10.16250202 -11.78178122 7.80847924 -8 5.4375 C-6.96842773 4.79361328 -6.96842773 4.79361328 -5.91601562 4.13671875 C-2.7930728 2.28501608 -2.7930728 2.28501608 0 0 Z " fill="#99D049" transform="translate(556,385)"/>
<path d="M0 0 C1 1 1 1 1.1875 3.9375 C1 7 1 7 -1 9 C-4.5 9.25 -4.5 9.25 -8 9 C-8.66 8.34 -9.32 7.68 -10 7 C-9.75 3.4375 -9.75 3.4375 -9 0 C-5.90842747 -1.54578627 -3.31526981 -0.60277633 0 0 Z " fill="#F28639" transform="translate(460,319)"/>
<path d="M0 0 C6.625 -0.25 6.625 -0.25 10 2 C9.125 6.875 9.125 6.875 8 8 C6.00041636 8.04080783 3.99954746 8.04254356 2 8 C2 9.32 2 10.64 2 12 C1.34 12 0.68 12 0 12 C0 8.04 0 4.08 0 0 Z " fill="#9A9998" transform="translate(465,376)"/>
<path d="M0 0 C3.375 -0.125 3.375 -0.125 7 0 C7.66 0.66 8.32 1.32 9 2 C8.70241581 4.3381615 8.36760731 6.67182036 8 9 C8.33 9.99 8.66 10.98 9 12 C8.01 11.67 7.02 11.34 6 11 C5.67 10.34 5.34 9.68 5 9 C2.97536745 8.34786708 2.97536745 8.34786708 1 8 C0.67 9.32 0.34 10.64 0 12 C0 8.04 0 4.08 0 0 Z " fill="#898888" transform="translate(390,376)"/>
<path d="M0 0 C1.75070517 0.11470137 3.50057536 0.24219028 5.25 0.375 C6.22453125 0.44460938 7.1990625 0.51421875 8.203125 0.5859375 C10.89633189 0.98465249 12.66963279 1.63507063 15 3 C14 6 14 6 12 7 C4.02475248 7.44306931 4.02475248 7.44306931 1 5 C0.61433811 3.34465901 0.27634866 1.67705704 0 0 Z " fill="#F4F9EB" transform="translate(595,352)"/>
<path d="M0 0 C2.4375 1.875 2.4375 1.875 4 4 C4 4.66 4 5.32 4 6 C-0.95 6 -5.9 6 -11 6 C-8.34483033 -0.63792418 -6.87649586 -0.59280137 0 0 Z " fill="#F8FCF3" transform="translate(574,340)"/>
<path d="M0 0 C3.375 -0.125 3.375 -0.125 7 0 C7.66 0.66 8.32 1.32 9 2 C8.44444444 6.55555556 8.44444444 6.55555556 7 8 C5.00041636 8.04080783 2.99954746 8.04254356 1 8 C0.67 9.32 0.34 10.64 0 12 C0 8.04 0 4.08 0 0 Z " fill="#898887" transform="translate(478,376)"/>
<path d="M0 0 C0.66 0 1.32 0 2 0 C2.69937202 1.4317616 3.38412718 2.87067032 4.0625 4.3125 C4.44535156 5.11300781 4.82820313 5.91351563 5.22265625 6.73828125 C6 9 6 9 5 12 C4.67 11.01 4.34 10.02 4 9 C1.69 9 -0.62 9 -3 9 C-3.33 9.99 -3.66 10.98 -4 12 C-4.33 11.34 -4.66 10.68 -5 10 C-4.00390625 7.6171875 -4.00390625 7.6171875 -2.5625 4.875 C-1.85287109 3.50988281 -1.85287109 3.50988281 -1.12890625 2.1171875 C-0.75636719 1.41851562 -0.38382812 0.71984375 0 0 Z " fill="#A1A0A0" transform="translate(457,376)"/>
<path d="M0 0 C2.875 -0.125 2.875 -0.125 6 0 C6.66 0.66 7.32 1.32 8 2 C7.625 5.125 7.625 5.125 7 8 C4.69 8 2.38 8 0 8 C0 5.36 0 2.72 0 0 Z " fill="#F9F9F9" transform="translate(327,378)"/>
<path d="M0 0 C2.97 0 5.94 0 9 0 C9 0.66 9 1.32 9 2 C6.69 2 4.38 2 2 2 C2 2.99 2 3.98 2 5 C3.98 5 5.96 5 8 5 C8 5.66 8 6.32 8 7 C6.02 7 4.04 7 2 7 C2 8.32 2 9.64 2 11 C4.31 11 6.62 11 9 11 C9 11.33 9 11.66 9 12 C6.03 12 3.06 12 0 12 C0 8.04 0 4.08 0 0 Z " fill="#959493" transform="translate(339,376)"/>
<path d="M0 0 C0.66 0 1.32 0 2 0 C2 1.65 2 3.3 2 5 C3.98 5 5.96 5 8 5 C8 3.35 8 1.7 8 0 C8.66 0 9.32 0 10 0 C10 3.96 10 7.92 10 12 C9.67 12 9.34 12 9 12 C9 10.35 9 8.7 9 7 C6.69 7 4.38 7 2 7 C2 8.65 2 10.3 2 12 C1.34 12 0.68 12 0 12 C0 8.04 0 4.08 0 0 Z " fill="#989696" transform="translate(439,376)"/>
<path d="M0 0 C2.64 0 5.28 0 8 0 C8 0.66 8 1.32 8 2 C6.02 2 4.04 2 2 2 C2 2.99 2 3.98 2 5 C3.98 5 5.96 5 8 5 C8 5.66 8 6.32 8 7 C6.02 7 4.04 7 2 7 C2 8.32 2 9.64 2 11 C3.98 11 5.96 11 8 11 C8 11.33 8 11.66 8 12 C5.36 12 2.72 12 0 12 C0 8.04 0 4.08 0 0 Z " fill="#969594" transform="translate(509,376)"/>
<path d="M0 0 C2.64 0 5.28 0 8 0 C8 0.66 8 1.32 8 2 C6.02 2 4.04 2 2 2 C2 2.99 2 3.98 2 5 C3.98 5 5.96 5 8 5 C8 5.66 8 6.32 8 7 C6.02 7 4.04 7 2 7 C2 8.32 2 9.64 2 11 C3.98 11 5.96 11 8 11 C8 11.33 8 11.66 8 12 C5.36 12 2.72 12 0 12 C0 8.04 0 4.08 0 0 Z " fill="#999898" transform="translate(378,376)"/>
<path d="M0 0 C4.38635744 2.19317872 5.51256905 3.91350629 8 8 C8.33 5.36 8.66 2.72 9 0 C9.33 0 9.66 0 10 0 C10 3.96 10 7.92 10 12 C7.66666667 9.66666667 5.33333333 7.33333333 3 5 C2.67 7.31 2.34 9.62 2 12 C1.34 12 0.68 12 0 12 C0 8.04 0 4.08 0 0 Z " fill="#868583" transform="translate(407,376)"/>
<path d="M0 0 C0 0.66 0 1.32 0 2 C-1.134375 1.979375 -2.26875 1.95875 -3.4375 1.9375 C-6.81575674 1.58422523 -6.81575674 1.58422523 -8 3 C-8.04063832 4.66617115 -8.042721 6.33388095 -8 8 C-5.03 8.495 -5.03 8.495 -2 9 C-2 7.68 -2 6.36 -2 5 C-1.34 5 -0.68 5 0 5 C0.042721 6.66611905 0.04063832 8.33382885 0 10 C-1 11 -1 11 -4.375 11.3125 C-8 11 -8 11 -10 9.3125 C-11.27800253 6.35711914 -11.08051862 5.01001617 -10 2 C-7.47684623 -2.20525628 -4.31614925 -0.89580456 0 0 Z " fill="#929190" transform="translate(431,377)"/>
<path d="M0 0 C3.3 0 6.6 0 10 0 C9.48184469 4.39646928 7.97390131 6.6606285 5.125 10 C2.9751975 12.53851218 1.09387666 14.82878454 -0.5078125 17.75 C-2 20 -2 20 -4.1875 20.8125 C-4.785625 20.874375 -5.38375 20.93625 -6 21 C-5.6596875 20.55011719 -5.319375 20.10023438 -4.96875 19.63671875 C-0.5766098 13.807788 3.7189713 7.91086196 8 2 C5.36 1.67 2.72 1.34 0 1 C0 0.67 0 0.34 0 0 Z " fill="#9CD059" transform="translate(532,408)"/>
<path d="M0 0 C0.99 0 1.98 0 3 0 C3 3.3 3 6.6 3 10 C4.98 10 6.96 10 9 10 C9 10.66 9 11.32 9 12 C6.03 12 3.06 12 0 12 C0 8.04 0 4.08 0 0 Z " fill="#AEADAD" transform="translate(350,376)"/>
<path d="M0 0 C0 0.33 0 0.66 0 1 C-0.804375 1.12375 -1.60875 1.2475 -2.4375 1.375 C-3.7059375 1.684375 -3.7059375 1.684375 -5 2 C-5.33 2.66 -5.66 3.32 -6 4 C-3.03 4.495 -3.03 4.495 0 5 C0.625 6.875 0.625 6.875 1 9 C-1 11 -1 11 -4.125 11.125 C-5.548125 11.063125 -5.548125 11.063125 -7 11 C-7 10.34 -7 9.68 -7 9 C-5.02 9 -3.04 9 -1 9 C-2.39195915 6.2160817 -4.15575779 6.02101003 -7 5 C-7 3.35 -7 1.7 -7 0 C-4.3333581 -1.33332095 -2.83319697 -0.67102033 0 0 Z " fill="#918F8F" transform="translate(538,377)"/>
<path d="M0 0 C1 2 1 2 0.36328125 4.12890625 C0.01652344 4.93199219 -0.33023438 5.73507812 -0.6875 6.5625 C-1.02136719 7.36816406 -1.35523438 8.17382812 -1.69921875 9.00390625 C-3 11 -3 11 -4.95703125 11.71484375 C-5.63121094 11.80894531 -6.30539062 11.90304687 -7 12 C-7.99 12.33 -8.98 12.66 -10 13 C-8.48446596 9.52224821 -6.4226544 7.0442016 -3.875 4.25 C-3.15054688 3.45078125 -2.42609375 2.6515625 -1.6796875 1.828125 C-0.84824219 0.92320312 -0.84824219 0.92320312 0 0 Z " fill="#4A4C4B" transform="translate(540,439)"/>
<path d="M0 0 C1.98 0.66 3.96 1.32 6 2 C6 2.66 6 3.32 6 4 C1.545 4.495 1.545 4.495 -3 5 C-3 5.66 -3 6.32 -3 7 C-5.97 7 -8.94 7 -12 7 C-11.34 6.01 -10.68 5.02 -10 4 C-8.0546875 3.70703125 -8.0546875 3.70703125 -5.875 3.8125 C-4.59625 3.874375 -3.3175 3.93625 -2 4 C-1.34 2.68 -0.68 1.36 0 0 Z " fill="#E7E6E5" transform="translate(521,382)"/>
<path d="M0 0 C2.33333333 2.33333333 4.66666667 4.66666667 7 7 C7.33 5.02 7.66 3.04 8 1 C8.33 1 8.66 1 9 1 C9 4.63 9 8.26 9 12 C4.125 7.375 4.125 7.375 3 4 C2.34 4 1.68 4 1 4 C1 6.64 1 9.28 1 12 C0.67 12 0.34 12 0 12 C0 8.04 0 4.08 0 0 Z " fill="#777576" transform="translate(496,376)"/>
<path d="M0 0 C0.66 0.66 1.32 1.32 2 2 C-0.31856917 3.54571278 -2.50638429 4.79618552 -5 6 C-5 6.99 -5 7.98 -5 9 C-7.31 9 -9.62 9 -12 9 C-12 8.34 -12 7.68 -12 7 C-10.04775792 5.71593601 -8.03659238 4.52058322 -6 3.375 C-4.88625 2.74335938 -3.7725 2.11171875 -2.625 1.4609375 C-1.75875 0.97882813 -0.8925 0.49671875 0 0 Z " fill="#A0D160" transform="translate(534,399)"/>
<path d="M0 0 C2.55489105 2.44038613 4.25254702 4.92115427 6 8 C6.680625 6.5459375 6.680625 6.5459375 7.375 5.0625 C9 2 9 2 11 1 C9.77472971 5.05281712 8.30119506 8.44360764 6 12 C3.32098068 9.68118495 2.33795597 7.68185532 1.3125 4.3125 C1.06113281 3.50425781 0.80976563 2.69601562 0.55078125 1.86328125 C0.36902344 1.24839844 0.18726563 0.63351562 0 0 Z " fill="#878483" transform="translate(365,376)"/>
<path d="M0 0 C0.33 0.66 0.66 1.32 1 2 C0.34249689 3.33787589 -0.3256926 4.67051448 -1 6 C-1.44811137 8.35564596 -1.44811137 8.35564596 -1.625 10.75 C-1.69976562 11.54921875 -1.77453125 12.3484375 -1.8515625 13.171875 C-1.90054687 13.77515625 -1.94953125 14.3784375 -2 15 C-2.33 15 -2.66 15 -3 15 C-3.33 13.35 -3.66 11.7 -4 10 C-4.99 10.495 -4.99 10.495 -6 11 C-5.55530671 5.96014269 -3.28656638 3.62365012 0 0 Z " fill="#55AE4F" transform="translate(324,471)"/>
<path d="M0 0 C1.98 0 3.96 0 6 0 C5.67 1.65 5.34 3.3 5 5 C3.35 5 1.7 5 0 5 C0 3.35 0 1.7 0 0 Z " fill="#EFEEEC" transform="translate(479,378)"/>
<path d="M0 0 C1.98 0 3.96 0 6 0 C5.67 1.65 5.34 3.3 5 5 C3.35 5 1.7 5 0 5 C0 3.35 0 1.7 0 0 Z " fill="#F2F2F1" transform="translate(467,378)"/>
<path d="M0 0 C1.98 0 3.96 0 6 0 C5.67 1.65 5.34 3.3 5 5 C3.35 5 1.7 5 0 5 C0 3.35 0 1.7 0 0 Z " fill="#E8E8E8" transform="translate(391,378)"/>
<path d="M0 0 C0.33 1.32 0.66 2.64 1 4 C-1.35346396 5.17673198 -2.8806033 5.16623866 -5.5 5.1875 C-6.2940625 5.20167969 -7.088125 5.21585937 -7.90625 5.23046875 C-10 5 -10 5 -12 3 C-10.95199219 2.92652344 -10.95199219 2.92652344 -9.8828125 2.8515625 C-8.97273438 2.77679688 -8.06265625 2.70203125 -7.125 2.625 C-6.22007812 2.55539062 -5.31515625 2.48578125 -4.3828125 2.4140625 C-1.82058097 2.20431868 -1.82058097 2.20431868 0 0 Z " fill="#F4E5D6" transform="translate(395,354)"/>
<path d="M0 0 C0 3.92709135 -1.27900462 4.8189713 -3.875 7.6875 C-4.59429687 8.49574219 -5.31359375 9.30398438 -6.0546875 10.13671875 C-8 12 -8 12 -10 12 C-8.52278578 8.54798361 -6.56205999 6.35038064 -3.875 3.75 C-3.15054687 3.04359375 -2.42609375 2.3371875 -1.6796875 1.609375 C-1.12539063 1.07828125 -0.57109375 0.5471875 0 0 Z " fill="#F88546" transform="translate(279,329)"/>
<path d="M0 0 C0.33 0.99 0.66 1.98 1 3 C-1.31 5.31 -3.62 7.62 -6 10 C-6.99 9.67 -7.98 9.34 -9 9 C-6.03 6.03 -3.06 3.06 0 0 Z " fill="#424443" transform="translate(529,452)"/>
<path d="M0 0 C0.33 0.66 0.66 1.32 1 2 C0.00390625 3.9453125 0.00390625 3.9453125 -1.4375 6.125 C-1.91058594 6.84945313 -2.38367188 7.57390625 -2.87109375 8.3203125 C-3.24363281 8.87460937 -3.61617188 9.42890625 -4 10 C-4.33 9.01 -4.66 8.02 -5 7 C-5.66 6.67 -6.32 6.34 -7 6 C-4.69 4.02 -2.38 2.04 0 0 Z " fill="#504539" transform="translate(408,448)"/>
<path d="M0 0 C0.33 0 0.66 0 1 0 C1 4.95 1 9.9 1 15 C1.66 15 2.32 15 3 15 C2.67 15.99 2.34 16.98 2 18 C1.34 18 0.68 18 0 18 C0 12.06 0 6.12 0 0 Z " fill="#FBEEE4" transform="translate(266,324)"/>
<path d="M0 0 C2.67927341 4.01891012 2.15601248 6.24161923 2 11 C1.67 11 1.34 11 1 11 C0.67 9.35 0.34 7.7 0 6 C-0.99 6.495 -0.99 6.495 -2 7 C-2.125 4.625 -2.125 4.625 -2 2 C-1.34 1.34 -0.68 0.68 0 0 Z " fill="#9DD360" transform="translate(556,385)"/>
<path d="M0 0 C0.66 0 1.32 0 2 0 C2.042721 1.66611905 2.04063832 3.33382885 2 5 C1 6 1 6 -2.5625 6.0625 C-3.696875 6.041875 -4.83125 6.02125 -6 6 C-5.67 5.34 -5.34 4.68 -5 4 C-3.35 4 -1.7 4 0 4 C0 2.68 0 1.36 0 0 Z " fill="#9C9A9A" transform="translate(429,382)"/>
<path d="M0 0 C0.33 0.66 0.66 1.32 1 2 C2.98 1.67 4.96 1.34 7 1 C7 1.99 7 2.98 7 4 C4.36 4 1.72 4 -1 4 C-0.67 2.68 -0.34 1.36 0 0 Z " fill="#F07A26" transform="translate(412,361)"/>
<path d="M0 0 C0.33 0.66 0.66 1.32 1 2 C0.0625 4.625 0.0625 4.625 -1 7 C-2.32 6.67 -3.64 6.34 -5 6 C-3.35 4.02 -1.7 2.04 0 0 Z " fill="#585A5B" transform="translate(540,439)"/>
<path d="M0 0 C1.32 0.66 2.64 1.32 4 2 C2.68799596 3.35432675 1.35368596 4.68733482 0 6 C-0.33 6 -0.66 6 -1 6 C-1.042721 4.33388095 -1.04063832 2.66617115 -1 1 C-0.67 0.67 -0.34 0.34 0 0 Z " fill="#484747" transform="translate(290,429)"/>
<path d="M0 0 C1.98 0.495 1.98 0.495 4 1 C2.625 3 2.625 3 1 5 C0.34 5 -0.32 5 -1 5 C-0.67 3.35 -0.34 1.7 0 0 Z " fill="#F5FAEC" transform="translate(601,340)"/>
</svg>
